<svg id="visual" viewBox="0 0 960 540" width="960" height="540" xmlns="http://www.w3.org/2000/svg" xmlns:xlink="http://www.w3.org/1999/xlink" version="1.1"><path d="M0 396L14.5 391.8C29 387.7 58 379.3 87.2 387C116.3 394.7 145.7 418.3 174.8 417.8C204 417.3 233 392.7 262 378.3C291 364 320 360 349 367C378 374 407 392 436.2 397.7C465.3 403.3 494.7 396.7 523.8 401.3C553 406 582 422 611 421.2C640 420.3 669 402.7 698 397.3C727 392 756 399 785.2 403.7C814.3 408.3 843.7 410.7 872.8 405.3C902 400 931 387 945.5 380.5L960 374L960 541L945.5 541C931 541 902 541 872.8 541C843.7 541 814.3 541 785.2 541C756 541 727 541 698 541C669 541 640 541 611 541C582 541 553 541 523.8 541C494.7 541 465.3 541 436.2 541C407 541 378 541 349 541C320 541 291 541 262 541C233 541 204 541 174.8 541C145.7 541 116.3 541 87.2 541C58 541 29 541 14.5 541L0 541Z" fill="#b5b9ff"></path><path d="M0 394L14.5 398.8C29 403.7 58 413.3 87.2 422.2C116.3 431 145.7 439 174.8 445.3C204 451.7 233 456.3 262 449.5C291 442.7 320 424.3 349 419.3C378 414.3 407 422.7 436.2 423.3C465.3 424 494.7 417 523.8 409.3C553 401.7 582 393.3 611 400.3C640 407.3 669 429.7 698 439.7C727 449.7 756 447.3 785.2 440.8C814.3 434.3 843.7 423.7 872.8 424.7C902 425.7 931 438.3 945.5 444.7L960 451L960 541L945.5 541C931 541 902 541 872.8 541C843.7 541 814.3 541 785.2 541C756 541 727 541 698 541C669 541 640 541 611 541C582 541 553 541 523.8 541C494.7 541 465.3 541 436.2 541C407 541 378 541 349 541C320 541 291 541 262 541C233 541 204 541 174.8 541C145.7 541 116.3 541 87.2 541C58 541 29 541 14.5 541L0 541Z" fill="#adaeff"></path><path d="M0 472L14.5 472C29 472 58 472 87.2 463.5C116.3 455 145.7 438 174.8 432.7C204 427.3 233 433.7 262 436.7C291 439.7 320 439.3 349 435C378 430.7 407 422.3 436.2 419.8C465.3 417.3 494.7 420.7 523.8 423.8C553 427 582 430 611 432.2C640 434.3 669 435.7 698 434.5C727 433.3 756 429.7 785.2 433.3C814.3 437 843.7 448 872.8 447.3C902 446.7 931 434.3 945.5 428.2L960 422L960 541L945.5 541C931 541 902 541 872.8 541C843.7 541 814.3 541 785.2 541C756 541 727 541 698 541C669 541 640 541 611 541C582 541 553 541 523.8 541C494.7 541 465.3 541 436.2 541C407 541 378 541 349 541C320 541 291 541 262 541C233 541 204 541 174.8 541C145.7 541 116.3 541 87.2 541C58 541 29 541 14.5 541L0 541Z" fill="#a6a4ff"></path><path d="M0 442L14.5 448.3C29 454.7 58 467.3 87.2 466.3C116.3 465.3 145.7 450.7 174.8 452.5C204 454.3 233 472.7 262 474.2C291 475.7 320 460.3 349 455.5C378 450.7 407 456.3 436.2 456.8C465.3 457.3 494.7 452.7 523.8 457.7C553 462.7 582 477.3 611 480.3C640 483.3 669 474.7 698 474C727 473.3 756 480.7 785.2 478.8C814.3 477 843.7 466 872.8 457.8C902 449.7 931 444.3 945.5 441.7L960 439L960 541L945.5 541C931 541 902 541 872.8 541C843.7 541 814.3 541 785.2 541C756 541 727 541 698 541C669 541 640 541 611 541C582 541 553 541 523.8 541C494.7 541 465.3 541 436.2 541C407 541 378 541 349 541C320 541 291 541 262 541C233 541 204 541 174.8 541C145.7 541 116.3 541 87.2 541C58 541 29 541 14.5 541L0 541Z" fill="#a099ff"></path><path d="M0 483L14.5 485.7C29 488.3 58 493.7 87.2 495C116.3 496.3 145.7 493.7 174.8 490.5C204 487.3 233 483.7 262 480.7C291 477.7 320 475.3 349 480C378 484.7 407 496.3 436.2 500.7C465.3 505 494.7 502 523.8 495.2C553 488.3 582 477.7 611 476.3C640 475 669 483 698 484C727 485 756 479 785.2 477.2C814.3 475.3 843.7 477.7 872.8 479.2C902 480.7 931 481.3 945.5 481.7L960 482L960 541L945.5 541C931 541 902 541 872.8 541C843.7 541 814.3 541 785.2 541C756 541 727 541 698 541C669 541 640 541 611 541C582 541 553 541 523.8 541C494.7 541 465.3 541 436.2 541C407 541 378 541 349 541C320 541 291 541 262 541C233 541 204 541 174.8 541C145.7 541 116.3 541 87.2 541C58 541 29 541 14.5 541L0 541Z" fill="#9b8eff"></path><path d="M0 520L14.5 521.2C29 522.3 58 524.7 87.2 522C116.3 519.3 145.7 511.7 174.8 508.5C204 505.3 233 506.7 262 508.5C291 510.3 320 512.7 349 511C378 509.3 407 503.7 436.2 504C465.3 504.3 494.7 510.7 523.8 512.3C553 514 582 511 611 511.3C640 511.7 669 515.3 698 514.7C727 514 756 509 785.2 509.8C814.3 510.7 843.7 517.3 872.8 518.3C902 519.3 931 514.7 945.5 512.3L960 510L960 541L945.5 541C931 541 902 541 872.8 541C843.7 541 814.3 541 785.2 541C756 541 727 541 698 541C669 541 640 541 611 541C582 541 553 541 523.8 541C494.7 541 465.3 541 436.2 541C407 541 378 541 349 541C320 541 291 541 262 541C233 541 204 541 174.8 541C145.7 541 116.3 541 87.2 541C58 541 29 541 14.5 541L0 541Z" fill="#9782ff"></path></svg>